<?xml version="1.0" encoding="UTF-8" standalone="no"?>
<!-- Created with Inkscape (http://www.inkscape.org/) -->

<svg
   xmlns:dc="http://purl.org/dc/elements/1.1/"
   xmlns:cc="http://creativecommons.org/ns#"
   xmlns:rdf="http://www.w3.org/1999/02/22-rdf-syntax-ns#"
   xmlns:svg="http://www.w3.org/2000/svg"
   xmlns="http://www.w3.org/2000/svg"
   xmlns:xlink="http://www.w3.org/1999/xlink"
   xmlns:sodipodi="http://sodipodi.sourceforge.net/DTD/sodipodi-0.dtd"
   xmlns:inkscape="http://www.inkscape.org/namespaces/inkscape"
   width="280"
   height="140"
   viewBox="0 0 280 140"
   id="svg4181"
   version="1.1"
   inkscape:version="0.91 r13725"
   sodipodi:docname="ecomp-Graduação.svg">
  <defs
     id="defs4183">
    <linearGradient
       inkscape:collect="always"
       id="linearGradient6087">
      <stop
         style="stop-color:#1e447d;stop-opacity:1"
         offset="0"
         id="stop6089" />
      <stop
         style="stop-color:#ffffff;stop-opacity:0"
         offset="1"
         id="stop6091" />
    </linearGradient>
    <linearGradient
       inkscape:collect="always"
       xlink:href="#linearGradient6087"
       id="linearGradient6093"
       x1="156.57364"
       y1="-43.540688"
       x2="-256.57877"
       y2="-39.500076"
       gradientUnits="userSpaceOnUse"
       gradientTransform="matrix(0.60432138,0,0,0.41041709,178.28551,207.42012)" />
  </defs>
  <sodipodi:namedview
     id="base"
     pagecolor="#ffffff"
     bordercolor="#666666"
     borderopacity="1.0"
     inkscape:pageopacity="0.0"
     inkscape:pageshadow="2"
     inkscape:zoom="0.98994949"
     inkscape:cx="306.38033"
     inkscape:cy="150.67225"
     inkscape:document-units="px"
     inkscape:current-layer="layer2"
     showgrid="false"
     inkscape:window-width="1366"
     inkscape:window-height="745"
     inkscape:window-x="-8"
     inkscape:window-y="-8"
     inkscape:window-maximized="1"
     units="px" />
  <metadata
     id="metadata4186">
    <rdf:RDF>
      <cc:Work
         rdf:about="">
        <dc:format>image/svg+xml</dc:format>
        <dc:type
           rdf:resource="http://purl.org/dc/dcmitype/StillImage" />
        <dc:title></dc:title>
      </cc:Work>
    </rdf:RDF>
  </metadata>
  <g
     inkscape:groupmode="layer"
     id="layer3"
     inkscape:label="grad"
     transform="translate(0,-119)">
    <rect
       style="opacity:0.5;fill:url(#linearGradient6093);fill-opacity:1"
       id="rect6085"
       width="250.89774"
       height="62.602165"
       x="22.008568"
       y="159.49295" />
    <text
       xml:space="preserve"
       style="font-style:normal;font-variant:normal;font-weight:bold;font-stretch:normal;font-size:19.36655617px;line-height:125%;font-family:Arial;-inkscape-font-specification:'Arial Bold';letter-spacing:0px;word-spacing:0px;fill:#1e447d;fill-opacity:1;stroke:none;stroke-width:1px;stroke-linecap:butt;stroke-linejoin:miter;stroke-opacity:1"
       x="196.60992"
       y="154.11307"
       id="text6099"
       sodipodi:linespacing="125%"><tspan
         sodipodi:role="line"
         id="tspan6101"
         x="196.60992"
         y="154.11307"
         style="font-style:normal;font-variant:normal;font-weight:bold;font-stretch:normal;font-size:14.52491665px;font-family:Arial;-inkscape-font-specification:'Arial Bold'">UPE - POLI</tspan></text>
  </g>
  <g
     inkscape:label="Camada 1"
     inkscape:groupmode="layer"
     id="layer1"
     transform="translate(0,-912.36216)">
    <path
       inkscape:connector-curvature="0"
       id="path4179"
       d="m 30.696704,1044.7548 c -4.674031,-0.6554 -11.411607,-2.2925 -14.15793,-3.4399 -1.645335,-0.6875 -1.679952,-0.758 -1.37367,-2.8004 l 0.314222,-2.0953 -4.011264,-2.472 c -4.0589395,-2.5013 -9.3437823,-6.81 -8.8987388,-7.2551 0.1332419,-0.1332 2.5545941,1.1094 5.380804,2.7613 8.8418638,5.168 15.3165878,7.3712 24.5584148,8.3565 15.184107,1.6188 31.338767,-4.423 42.981127,-16.0748 4.716347,-4.7202 7.273134,-8.3794 10.672139,-15.2737 3.437172,-6.97167 4.870791,-12.88997 5.157663,-21.29179 0.193462,-5.66611 0.06161,-7.60199 -0.803586,-11.79843 -1.905026,-9.23986 -6.743973,-19.18498 -12.661424,-26.02206 -1.038643,-1.20006 -1.888438,-2.44686 -1.888438,-2.77067 0,-0.85026 6.422284,-7.09898 7.296162,-7.09898 0.404606,0 1.551396,1.06968 2.54842,2.37706 2.863796,3.75526 2.69826,3.71177 6.616991,1.73833 4.113602,-2.07158 4.162347,-2.05096 6.60082,2.79119 1.649564,3.27559 5.565134,14.05802 6.611774,18.20706 0.47362,1.87749 0.43083,2.19112 -0.37991,2.78394 -0.50252,0.36745 -1.94853,0.66809 -3.21337,0.66809 -1.26484,0 -2.430071,0.21093 -2.589404,0.46874 -0.280142,0.45328 0.967944,8.65883 1.379654,9.07053 0.11189,0.1119 1.47915,0.33178 3.03836,0.48862 1.5592,0.15684 2.99498,0.52474 3.19062,0.81756 0.5177,0.77486 0.43132,8.69339 -0.13785,12.6365 -0.83906,5.81294 -2.44144,11.90961 -3.20743,12.20351 -0.39288,0.1508 -1.79166,-0.2305 -3.1084,-0.8472 -1.462844,-0.6852 -2.562143,-0.94607 -2.826181,-0.6709 -0.560803,0.5844 -2.937863,6.482 -2.937863,7.2888 0,0.3408 0.980431,1.2941 2.178737,2.1186 1.201932,0.8269 2.178738,1.8846 2.178738,2.359 0,2.6035 -11.723584,17.1347 -14.357334,17.7957 -0.946661,0.2376 -1.486577,-0.064 -2.769107,-1.5479 l -1.593161,-1.843 -2.959113,2.277 c -4.715243,3.6283 -4.655415,3.5364 -3.509002,5.3913 1.59043,2.5734 1.331731,3.0598 -2.574087,4.8397 -6.469553,2.9483 -17.67388,6.0922 -19.379246,5.4378 -0.38491,-0.1477 -0.846657,-0.9369 -1.026088,-1.7538 -0.301973,-1.3749 -0.479807,-1.4852 -2.39545,-1.4852 -1.138074,0 -3.397038,0.1388 -5.019955,0.3084 l -2.950737,0.3084 -0.146314,1.7493 -0.146315,1.7493 -2.662901,0.08 c -1.464596,0.044 -4.623766,-0.195 -7.020377,-0.5311 z m -12.73415,-16.6157 c -0.515973,-0.7323 -1.412112,-2.268 -1.991511,-3.4127 -0.579399,-1.1447 -1.380787,-2.2069 -1.780948,-2.3605 -0.400128,-0.1535 -2.44083,0.2087 -4.5348394,0.8049 -2.0940088,0.5963 -4.0278079,0.9478 -4.2972935,0.7813 -2.1518665,-1.33 -6.7044597,-27.27107 -4.97367062,-28.34077 0.3393505,-0.2097 2.12397862,-0.2735 3.96578652,-0.1417 l 3.3488166,0.2396 0,-5.40122 c 0,-6.06429 0.3277305,-5.54344 -4.3574752,-6.92488 l -2.1787376,-0.64241 0.093783,-2.77254 c 0.1804478,-5.33455 5.4881915,-21.54458 7.4595133,-22.78174 0.5849668,-0.3671 1.2973649,-0.13248 2.9049829,0.9567 1.171483,0.79369 2.38273,1.58984 2.691627,1.76921 0.543668,0.31569 5.490419,-7.04603 5.490419,-8.17081 0,-0.27993 -0.871495,-1.35996 -1.936656,-2.40006 -1.071842,-1.0466 -1.936656,-2.35566 -1.936656,-2.93141 0,-1.09146 4.007764,-5.87767 7.746623,-9.25128 3.338552,-3.01242 9.719261,-7.42594 10.735763,-7.42594 0.558435,0 1.414679,0.83882 2.224007,2.17873 0.723825,1.19831 1.491273,2.17874 1.705467,2.17874 0.415946,0 7.462903,-3.74004 8.419078,-4.46826 0.432358,-0.32928 0.383942,-0.93836 -0.199621,-2.51297 -0.423643,-1.14308 -0.643841,-2.40786 -0.489296,-2.81062 0.647279,-1.68681 14.996376,-4.3814 22.077897,-4.14596 l 4.185181,0.13914 0.242082,1.93666 0.242082,1.93665 2.662901,0.31524 c 1.464596,0.17338 4.024613,0.33679 5.688926,0.36312 l 3.026025,0.0479 0,-1.46769 c 0,-0.92003 0.299484,-1.58261 0.802598,-1.77567 1.939701,-0.74434 12.465303,2.38905 19.998192,5.95329 6.251,2.9577 6.46697,3.17827 5.49359,5.61097 l -0.76894,1.9218 4.81384,4.51217 c 4.90419,4.59684 7.7372,7.85052 7.25522,8.3325 -0.14744,0.14744 -2.29371,-1.43197 -4.76949,-3.50979 -12.33762,-10.35447 -23.457407,-14.97297 -37.424567,-15.54393 -30.249104,-1.23656 -57.386499,21.24984 -61.762469,51.17712 -0.371935,2.54355 -0.481937,6.29233 -0.297035,10.12159 0.456082,9.44576 2.559097,16.75382 7.700869,26.76082 1.60234,3.1185 2.796676,5.974 2.65409,6.3455 -0.285367,0.7437 -7.77819,6.1407 -8.525352,6.1407 -0.256704,0 -0.888877,-0.5992 -1.404802,-1.3315 z"
       style="fill:#abb1cd"
       sodipodi:nodetypes="ssccscsssssssssssssssssssscssssssscsssccssccccscscscsscsscscssssssscssssscccsscsssscscssssscsc" />
    <path
       inkscape:connector-curvature="0"
       id="path4177"
       d="m 32.271379,1044.8822 c -4.132484,-0.5362 -9.988252,-1.7917 -13.434855,-2.8805 l -3.873554,-1.2236 0.293646,-2.1425 0.293645,-2.1424 -2.983244,-1.8118 c -1.640783,-0.9965 -3.7611301,-2.5271 -4.7118828,-3.4014 -1.6425744,-1.5104 -1.4635306,-1.4584 3.5971928,1.0452 13.652265,6.7539 26.630423,8.192 39.713645,4.4006 20.103047,-5.8256 35.810122,-23.0183 39.683439,-43.43677 1.02588,-5.408 0.93782,-14.55539 -0.192867,-20.03411 -1.760488,-8.53041 -6.086918,-17.49859 -11.96293,-24.79776 -1.426231,-1.77166 -2.595898,-3.44491 -2.599268,-3.71835 -0.0034,-0.27343 1.495098,-1.98687 3.329939,-3.80765 l 3.336064,-3.3105 1.384534,1.6012 c 0.761488,0.88066 2.038151,2.31535 2.837021,3.18821 l 1.452492,1.58701 3.564521,-1.67533 c 1.960491,-0.92143 3.762825,-1.55278 4.005188,-1.40299 1.330904,0.82254 5.216695,10.10178 7.481465,17.86568 1.9566,6.70748 1.85026,7.02848 -2.32856,7.02848 -1.627475,0 -2.4279,0.22 -2.619784,0.72004 -0.419658,1.09361 1.158358,9.5588 1.865524,10.00754 0.34095,0.21635 1.62813,0.3967 2.86041,0.40078 1.41577,0.005 2.46746,0.2809 2.8571,0.75039 1.36093,1.63981 -0.80184,19.84246 -2.71323,22.83553 l -0.68004,1.0649 -2.62812,-1.1623 c -3.082306,-1.36317 -2.919292,-1.48447 -5.001425,3.7228 -1.650103,4.1269 -1.654485,4.1076 1.446697,6.3767 0.998588,0.7306 1.815614,1.6059 1.815614,1.945 0,2.095 -10.374751,15.1908 -13.256083,16.7328 -1.230895,0.6587 -1.377892,0.6055 -3.177868,-1.1522 l -1.887281,-1.8429 -3.911807,3.0262 c -2.151498,1.6644 -3.910374,3.1623 -3.908621,3.3288 0.0019,0.1664 0.436067,0.9562 0.965137,1.7551 0.52907,0.7989 0.963385,1.804 0.965137,2.2337 0.0051,1.2619 -8.173698,4.5949 -16.539048,6.7399 -5.326868,1.3658 -6.097899,1.2931 -6.590923,-0.6218 -0.361623,-1.4045 -0.610241,-1.5883 -2.313626,-1.7111 -1.049666,-0.076 -3.433593,0.033 -5.297624,0.2421 l -3.389147,0.3796 -0.150285,1.8157 -0.150236,1.8156 -2.996829,-0.073 c -1.648239,-0.04 -3.650402,-0.1573 -4.449273,-0.261 z m -14.152967,-16.249 c -0.260093,-0.3329 -1.188623,-1.967 -2.06341,-3.6313 -0.905241,-1.7223 -1.913174,-3.026 -2.339451,-3.026 -0.411927,0 -2.370031,0.4549 -4.3512779,1.0108 -3.0056895,0.8434 -3.7079692,0.9036 -4.2398717,0.3632 -1.7140371,-1.7414 -4.61359787,-15.8691 -4.73633344,-23.0769 l -0.071511,-4.19987 3.63122924,0 3.6312294,0 0.1415695,-4.8416 c 0.1997176,-6.83168 0.1875167,-6.85928 -3.3344853,-7.55219 -1.6380717,-0.32227 -3.0603516,-0.8817 -3.2058913,-1.26096 -0.37721204,-0.98294 0.7404319,-7.42147 2.0331495,-11.71272 1.627517,-5.40278 4.6464242,-12.68458 5.3745583,-12.96401 0.3478234,-0.13347 1.5703857,0.39258 2.7167407,1.169 1.146403,0.77643 2.351778,1.56754 2.678704,1.75803 0.39014,0.22733 1.36176,-0.8509 2.827663,-3.1378 3.643043,-5.68352 3.60581,-5.37477 0.985128,-8.17651 l -2.276974,-2.43429 0.871543,-1.48728 c 2.19854,-3.75161 15.389862,-14.96384 17.605153,-14.96384 0.491185,0 1.38224,0.91433 2.123204,2.17874 0.70228,1.1983 1.539981,2.1691 1.861659,2.15733 0.32163,-0.0118 2.4367,-1.05766 4.700166,-2.32419 4.45363,-2.49204 4.417657,-2.42805 3.625032,-6.45187 -0.343659,-1.74445 -0.315674,-1.78678 1.522647,-2.3049 6.582276,-1.85515 21.315611,-3.82734 23.197512,-3.10519 0.418003,0.16041 0.704647,0.91456 0.704647,1.85389 0,0.87092 0.280559,1.81634 0.623468,2.10093 0.342909,0.28458 3.120799,0.5836 6.17309,0.66448 l 5.549622,0.14706 0.151718,-1.57353 c 0.191574,-1.98693 1.039093,-2.03034 7.234372,-0.37056 8.184791,2.19278 18.839179,7.03065 18.678379,8.48135 -0.0442,0.39886 -0.35683,1.41346 -0.69472,2.25467 -0.58781,1.46343 -0.54254,1.58869 1.04871,2.90141 3.03695,2.50536 6.82323,6.18517 7.32085,7.11499 0.6191,1.1568 0.0182,0.83118 -2.9949,-1.62285 -11.72729,-9.55135 -26.116156,-14.52086 -40.185605,-13.87896 -32.854156,1.49891 -59.438807,29.64591 -57.925214,61.32936 0.47298,9.90021 2.739642,17.87328 7.798414,27.43138 1.473311,2.7836 2.678733,5.3577 2.678733,5.7203 0,0.6454 -7.288056,6.0656 -8.15592,6.0656 -0.242275,0 -0.653234,-0.2724 -0.913326,-0.6052 z"
       style="fill:#9396b6"
       sodipodi:nodetypes="sscccssssssscscsscsssssscsscsssssscscscscsscccssscsscscccsscsccscsccscsscssssscsscssssssssss" />
    <path
       inkscape:connector-curvature="0"
       id="path4175"
       d="m 32.982408,1044.6173 c -4.837054,-0.4975 -9.84755,-1.557 -14.129137,-2.9876 l -3.300763,-1.1029 0.157852,-2.2683 c 0.14917,-2.1436 0.06928,-2.3141 -1.452492,-3.1003 -2.252142,-1.1634 -5.2960319,-3.2112 -5.0857595,-3.4215 0.096542,-0.097 1.6805815,0.5097 3.5200655,1.3471 19.459055,8.8592 38.551961,7.3584 55.507909,-4.3633 4.047842,-2.7982 10.025654,-8.6262 13.217398,-12.8861 2.865379,-3.8243 7.659585,-13.5928 8.910713,-18.15607 4.669959,-17.03318 0.401846,-35.06253 -11.865933,-50.12405 -1.180953,-1.4499 -2.147185,-2.76704 -2.147185,-2.927 0,-0.56593 5.97209,-6.50114 6.541534,-6.50114 0.317946,0 1.60511,1.30724 2.860363,2.90498 1.255258,1.59774 2.465396,2.90498 2.689192,2.90498 0.223799,0 1.863706,-0.65362 3.644238,-1.45249 1.780532,-0.79887 3.510958,-1.45249 3.845395,-1.45249 1.634861,0 9.666222,21.25031 8.842572,23.39671 -0.16094,0.41939 -1.37559,0.80337 -3.19105,1.00877 -1.612167,0.18239 -3.039366,0.50662 -3.171553,0.7205 -0.348346,0.56365 1.206944,9.38037 1.781133,10.09694 0.26671,0.33287 1.27529,0.60818 2.24127,0.61182 3.94,0.0148 3.93507,0.008 3.93507,5.55432 0,6.74074 -2.13143,18.64722 -3.33811,18.64722 -0.22334,0 -1.53476,-0.469 -2.91426,-1.0423 -1.454969,-0.60467 -2.670777,-0.85877 -2.895381,-0.60527 -0.21295,0.2405 -1.101531,2.24177 -1.974624,4.44727 -1.551324,3.9189 -1.567073,4.0326 -0.692412,4.9991 0.492269,0.544 1.500046,1.3464 2.239515,1.7832 0.784616,0.4635 1.344484,1.2137 1.344484,1.8016 0,1.6358 -4.603256,8.1668 -9.048917,12.8384 -2.273459,2.389 -4.40975,4.3437 -4.747314,4.3437 -0.337569,0 -1.195386,-0.7626 -1.906269,-1.6946 -0.710884,-0.932 -1.619868,-1.6945 -2.019966,-1.6945 -0.837444,0 -7.401709,5.1101 -7.758451,6.0398 -0.130782,0.3408 0.210205,1.3544 0.757741,2.2526 0.547541,0.8981 0.996342,1.7926 0.997334,1.9879 0.008,1.5632 -20.564818,8.4453 -22.208651,7.4294 -0.258907,-0.1601 -0.609756,-0.9239 -0.779659,-1.6975 -0.169903,-0.7735 -0.568404,-1.506 -0.885555,-1.6277 -0.317147,-0.1217 -2.428101,-0.045 -4.69101,0.1712 -2.262905,0.2158 -4.482506,0.4061 -4.932435,0.4229 -0.588864,0.022 -0.860165,0.5391 -0.968327,1.846 -0.175931,2.1257 -0.535989,2.2062 -6.928565,1.5487 z m -14.392159,-16.3297 c -0.394938,-0.4583 -1.331136,-1.9809 -2.080438,-3.3835 -0.749302,-1.4026 -1.618705,-2.7629 -1.932008,-3.0229 -0.381284,-0.3164 -1.9064,-0.073 -4.6122467,0.7372 -2.5082111,0.7508 -4.2144531,1.0382 -4.495365,0.7573 -1.4530244,-1.4531 -4.49192752,-16.1264 -4.77056385,-23.0345 l -0.15619127,-3.87327 3.75227022,-0.1415 3.7522703,-0.1414 0,-5.79994 c 0,-6.52005 0.3471455,-5.93658 -4.3574751,-7.32352 l -2.1787376,-0.6423 0.1513012,-2.35306 c 0.381037,-5.92582 5.736374,-21.67661 7.4811554,-22.00315 0.4697843,-0.0879 1.7655034,0.51034 2.8793224,1.32946 1.113819,0.81913 2.279609,1.48932 2.590606,1.48932 0.428732,0 4.275221,-5.77241 5.883981,-8.83009 0.103369,-0.19647 -0.822216,-1.43717 -2.056859,-2.75709 -1.736608,-1.85658 -2.17115,-2.63196 -1.919453,-3.42499 0.56088,-1.76718 9.005308,-9.80458 13.481781,-12.83195 l 4.283645,-2.89698 1.164109,1.45084 c 0.640259,0.79796 1.287315,1.83211 1.437904,2.29812 0.15059,0.46601 0.66835,0.84729 1.150577,0.84729 0.804598,0 8.432552,-3.93348 9.402187,-4.84839 0.233164,-0.22 0.04931,-1.36289 -0.414691,-2.57785 -0.458455,-1.20045 -0.703679,-2.39276 -0.544951,-2.64959 0.867075,-1.40296 16.192972,-4.11354 21.870913,-3.86815 l 3.362227,0.14531 0.242082,1.93665 c 0.242014,1.9361 0.242828,1.93675 2.80787,2.24981 1.411183,0.17224 4.134605,0.39011 6.052049,0.48416 l 3.486261,0.17102 0.158297,-1.45249 c 0.08706,-0.79888 0.336112,-1.63619 0.553443,-1.86069 1.014232,-1.04772 11.627007,2.14415 19.541149,5.87715 4.99459,2.35588 5.69493,2.82962 5.46998,3.70015 -1.00966,3.90713 -1.15629,3.51165 2.5592,6.9027 1.91072,1.74388 3.37796,3.26677 3.26053,3.38419 -0.11743,0.11742 -1.92464,-1.01615 -4.01604,-2.51906 -7.32922,-5.26692 -17.386681,-9.49299 -25.831985,-10.85442 -4.598279,-0.74126 -13.758249,-0.62621 -18.69581,0.23483 -8.207963,1.43135 -16.818596,4.97628 -24.390933,10.04155 -4.965396,3.32144 -13.242304,11.7277 -16.671332,16.93187 -6.091745,9.24534 -8.973237,18.31307 -9.345254,29.40845 -0.385815,11.50704 1.886995,20.96131 7.663032,31.87601 2.198806,4.1551 2.776079,5.6443 2.375138,6.1274 -0.291326,0.351 -2.126099,1.7418 -4.077279,3.0907 -3.301499,2.2823 -3.597411,2.3946 -4.265668,1.6193 z"
       style="fill:#7188aa"
       sodipodi:nodetypes="sscsssssssssssssssscssssscsssssssssscsssssssssssscccsscsssssssscssscssscssscssssscsssssssssss" />
    <path
       inkscape:connector-curvature="0"
       id="path4169"
       d="m 34.056923,1044.0353 c -5.075055,-0.4962 -10.156936,-1.5421 -14.432394,-2.9704 -3.069986,-1.0256 -3.317055,-1.2093 -3.125907,-2.324 0.114166,-0.6657 0.223103,-1.703 0.242082,-2.3052 0.01888,-0.6021 0.267985,-1.0051 0.553254,-0.8957 3.140965,1.2054 9.010048,2.7473 12.272344,3.2243 6.089378,0.8904 15.622517,0.3483 21.342525,-1.2137 5.874506,-1.6042 14.222218,-5.6742 19.149525,-9.3365 10.141249,-7.5376 18.106805,-19.2537 21.389931,-31.46117 1.145502,-4.25927 1.273278,-5.58326 1.274551,-13.20671 0.0015,-7.71257 -0.11603,-8.9004 -1.307465,-13.23725 -2.201382,-8.01309 -6.577284,-16.41994 -11.880307,-22.82409 -1.098481,-1.32657 -1.997234,-2.64063 -1.997234,-2.92014 0,-0.27951 1.278047,-1.77291 2.84011,-3.31867 l 2.840105,-2.81047 2.315035,2.94667 c 1.36801,1.74126 2.687589,2.94667 3.225747,2.94667 0.500891,0 2.205531,-0.65362 3.788084,-1.45249 1.582552,-0.79887 3.061339,-1.45249 3.286185,-1.45249 1.103196,0 5.058276,9.29484 7.335926,17.24016 0.81015,2.82611 1.37011,5.30487 1.24435,5.50835 -0.12576,0.20348 -1.43865,0.47031 -2.91753,0.59295 -1.47888,0.12263 -2.930876,0.46498 -3.226652,0.76075 -0.543561,0.54356 0.03515,5.74074 1.099319,9.87268 0.4563,1.7717 0.469266,1.77921 3.664143,2.12135 l 3.20623,0.34336 -0.26724,5.86735 c -0.25521,5.60313 -1.90793,15.06312 -2.79317,15.98782 -0.24671,0.2577 -1.4595,0 -2.95438,-0.6167 -3.09182,-1.2849 -3.186905,-1.2131 -5.222742,3.94437 -2.001998,5.0718 -1.949442,5.6246 0.693493,7.2943 1.197826,0.7568 2.17787,1.6684 2.17787,2.026 0,2.1455 -11.558522,16.2067 -13.322142,16.2067 -0.297243,0 -1.215557,-0.7625 -2.040703,-1.6946 -0.825141,-0.932 -1.682256,-1.6933 -1.9047,-1.6918 -0.896996,0.01 -8.391941,6.4309 -8.375983,7.1802 0.0094,0.4432 0.328525,1.3505 0.709087,2.0162 1.3489,2.3596 1.28747,2.4088 -6.778294,5.4279 -4.330294,1.6209 -12.892254,3.8707 -13.274743,3.4882 -0.136438,-0.1364 -0.476514,-0.9456 -0.755683,-1.7981 l -0.507598,-1.5501 -4.391849,0.1658 c -2.415494,0.091 -5.135963,0.32 -6.045465,0.5085 -1.494468,0.3096 -1.653661,0.5026 -1.653661,2.0048 0,1.9477 0.0213,1.9422 -5.474054,1.4049 z m -16.722876,-19.3714 c -1.024152,-1.8805 -2.164939,-3.5352 -2.535131,-3.6772 -0.370192,-0.1421 -2.180577,0.1996 -4.023063,0.7592 -1.8425342,0.5597 -3.6799846,1.0175 -4.0832447,1.0175 -0.8299538,0 -1.7434258,-2.4803 -3.2123791,-8.7225 -1.128925,-4.7974 -2.56592347,-16.34307 -2.123204,-17.05947 0.1797216,-0.2908 1.5059918,-0.3877 3.2610376,-0.2382 1.626936,0.1385 3.2304384,0.149 3.5633011,0.023 0.4411701,-0.1666 0.6052049,-1.9261 0.6052049,-6.49273 0,-7.05098 0.3642365,-6.40031 -4.3574752,-7.78377 -2.1596615,-0.63278 -2.1772851,-0.65534 -2.0106843,-2.57503 0.4037443,-4.65353 4.6789116,-18.25969 6.5347603,-20.7977 0.6078677,-0.8313 0.7847812,-0.78471 3.2020184,0.84312 1.407222,0.94769 2.804519,1.62799 3.105136,1.5118 0.660255,-0.2552 6.114506,-9.02974 6.114506,-9.83672 0,-0.31336 -0.985709,-1.62355 -2.190454,-2.91152 l -2.190454,-2.34178 1.877248,-2.35808 c 3.319719,-4.16992 10.749891,-10.53007 14.670796,-12.55802 1.238055,-0.64033 1.305306,-0.5987 2.41622,1.49541 0.628493,1.18474 1.442227,2.269 1.808255,2.40946 0.820949,0.31502 10.24457,-4.58277 10.612486,-5.51568 0.14641,-0.37124 -0.08855,-1.63221 -0.522171,-2.80217 l -0.788413,-2.12719 1.315038,-0.519 c 3.120387,-1.23151 12.872503,-2.8474 17.855852,-2.95865 l 5.246546,-0.11713 0.242082,1.93258 c 0.238024,1.90018 0.281861,1.93824 2.614659,2.27006 1.304914,0.18561 4.246209,0.40532 6.536213,0.48824 l 4.163635,0.15076 0.158297,-1.45249 c 0.08706,-0.79887 0.311197,-1.61126 0.49807,-1.80531 0.847848,-0.8804 12.227341,2.64456 19.194355,5.94573 5.43158,2.57363 5.24429,2.37741 4.33843,4.54542 -0.42208,1.0102 -0.65178,2.1381 -0.51043,2.50645 0.14135,0.36835 0.1795,0.66973 0.0848,0.66973 -0.0947,0 -1.99429,-0.9617 -4.22124,-2.13711 -5.158386,-2.72264 -11.515207,-4.94484 -16.763059,-5.86 -6.063785,-1.05743 -16.077796,-0.93675 -21.973973,0.26481 -24.085487,4.90831 -43.373996,23.79421 -48.364177,47.35474 -1.484204,7.00732 -1.197966,18.86577 0.621279,25.73964 1.611734,6.0898 3.914466,11.8232 6.683786,16.6412 1.244253,2.1647 2.171475,4.1536 2.060457,4.4199 -0.233125,0.5594 -6.716903,5.0854 -7.278097,5.0806 -0.206109,0 -1.212686,-1.5418 -2.236789,-3.4222 z"
       style="fill:#1d4484"
       sodipodi:nodetypes="csccssssscsssscsssssssssscsscssssscssssscccsccsssscscsscssssscssscsscsscssscscssssssssssccc" />
  </g>
  <g
     inkscape:groupmode="layer"
     id="layer2"
     inkscape:label="texto"
     transform="translate(0,-119)">
    <path
       inkscape:connector-curvature="0"
       id="path4171"
       d="m 241.88134,218.1018 c -3.20138,-1.01246 -5.02653,-2.16522 -5.80177,-3.66437 -1.06844,-2.06615 -1.09988,-33.0013 -0.0344,-33.88555 0.51804,-0.42994 3.82175,-0.52793 12.7093,-0.37697 13.96841,0.23726 15.83584,0.6194 19.31427,3.95231 l 2.13622,2.04687 -0.002,7.95065 c -0.002,8.90024 -0.32922,10.0313 -3.45849,11.95518 -3.80194,2.33743 -15.05045,3.57936 -15.75642,1.73965 -0.54591,-1.42263 0.56463,-2.3407 3.23334,-2.67298 4.24986,-0.52916 6.79137,-1.44833 8.5247,-3.08307 l 1.64883,-1.55494 0,-6.13997 c 0,-7.6092 -0.38076,-8.54576 -3.98507,-9.80216 -2.0885,-0.72801 -4.04376,-0.88928 -10.78192,-0.88928 l -8.23079,0 -0.12877,13.47624 -0.12877,13.47624 1.60542,1.60542 c 0.92417,0.92418 2.51971,1.85052 3.76,2.18301 1.18502,0.31766 2.48139,0.7441 2.88082,0.94764 0.96096,0.48967 1.19164,1.83464 0.46486,2.71036 -0.72918,0.8786 -5.2267,0.89312 -7.9694,0.0257 z M 43.528032,212.7617 c -8.260572,-1.46478 -14.772373,-4.53758 -17.674345,-8.34018 l -1.361938,-1.78462 -0.141463,-13.84361 c -0.140064,-13.70666 -0.13025,-13.8651 0.991703,-16.01607 2.251028,-4.3156 9.931577,-8.05738 18.828955,-9.17302 16.749105,-2.10016 33.333534,2.2143 37.089024,9.64875 0.92913,1.83933 1.089369,2.92483 1.089369,7.37975 0,7.81241 1.800349,7.15987 -19.753887,7.15987 -13.212296,0 -17.967392,-0.15016 -18.39823,-0.581 -0.94611,-0.94611 -0.717996,-3.66909 0.355502,-4.24361 0.580294,-0.31056 5.990339,-0.5012 14.223551,-0.5012 14.738695,0 14.753651,-0.003 14.127225,-3.00619 -1.611574,-7.7257 -10.29514,-11.56363 -23.797087,-10.51777 -5.566657,0.4312 -8.159529,1.0388 -11.365323,2.6633 -4.361828,2.21031 -4.292307,1.94376 -4.292307,16.45669 l 0,12.72791 1.273477,1.51345 c 1.633273,1.94103 5.110224,3.69447 9.252764,4.66621 2.505055,0.58763 4.975454,0.71575 10.534891,0.54636 6.187377,-0.18852 7.855404,-0.41418 11.26797,-1.52443 4.540015,-1.47705 7.37234,-3.57137 7.37234,-5.45136 0,-1.92266 0.860175,-2.99863 2.81888,-3.52606 2.160707,-0.58182 4.711534,-0.004 5.692939,1.29006 1.674926,2.20814 0.160912,7.24509 -2.873396,9.55947 -2.237404,1.70655 -6.584523,3.40521 -11.209731,4.38025 -5.254539,1.10772 -19.047623,1.40425 -24.050883,0.51705 z m 76.344008,-3.83563 c -3.97775,-0.8571 -7.60242,-2.52143 -9.26323,-4.25338 l -1.38838,-1.44784 -0.15089,-8.3265 c -0.14554,-8.03102 -0.11117,-8.38453 0.96833,-9.96219 4.83727,-7.06956 26.10397,-7.09294 32.04264,-0.0352 2.25785,2.6833 1.12894,6.07177 -1.90298,5.71187 -1.37908,-0.1637 -1.75299,-0.62993 -2.45587,-3.06231 -0.32181,-1.11368 -1.06095,-1.7732 -3.16864,-2.82733 -5.3988,-2.70014 -14.46074,-2.14934 -18.3765,1.11695 l -1.63028,1.35989 -0.15573,6.7231 c -0.18283,7.89342 0.0386,8.40183 4.64583,10.66423 2.51718,1.23608 3.21799,1.35568 7.61399,1.29932 7.27656,-0.0933 11.36906,-1.9722 11.38527,-5.22709 0.0104,-2.08889 0.64322,-2.86093 2.34501,-2.86093 2.01321,0 2.97338,0.93892 2.97338,2.90761 0,3.5656 -2.61543,5.99104 -8.23079,7.6329 -3.63632,1.06321 -11.61561,1.37029 -15.25116,0.58693 z m 38.00048,-0.003 c -3.85534,-0.68921 -8.56277,-2.9836 -9.89734,-4.82395 -0.88359,-1.21845 -1.00503,-2.20694 -1.13022,-9.19912 -0.12357,-6.90136 -0.0326,-8.03138 0.76417,-9.49211 4.27092,-7.83001 29.49458,-7.6186 33.26535,0.27881 0.55124,1.15451 0.72846,3.34556 0.72846,9.00647 0,6.94766 -0.0776,7.59806 -1.08937,9.12595 -2.91764,4.40612 -13.3673,6.76178 -22.64105,5.10395 z m 13.18482,-3.71504 c 0.99032,-0.27898 2.46097,-1.06292 3.26811,-1.74208 l 1.46752,-1.23464 0,-7.7267 c 0,-7.62672 -0.0157,-7.74127 -1.21443,-8.8522 -1.84198,-1.70709 -5.20412,-2.46143 -10.88967,-2.44323 -5.30703,0.017 -7.80077,0.57777 -9.89511,2.22517 l -1.24066,0.97591 0,7.91052 0,7.91053 1.47451,1.24072 c 0.81098,0.68239 2.28163,1.44778 3.26811,1.70086 0.98648,0.25308 2.22934,0.57489 2.76192,0.71513 1.41643,0.37297 8.90559,-0.0899 10.9997,-0.67979 z m 15.22974,3.76641 c -0.75193,-0.55045 -0.81506,-1.87548 -0.69774,-14.64596 l 0.12899,-14.04076 3.38915,-0.26763 c 1.86403,-0.1472 4.01313,-0.10082 4.77577,0.10307 0.76264,0.20388 4.31385,2.56849 7.89157,5.25468 3.57772,2.68619 6.78793,4.99257 7.13379,5.12529 0.34587,0.13273 2.67725,-1.31907 5.18085,-3.22621 2.50361,-1.90714 5.73407,-4.36884 7.17881,-5.47045 2.59497,-1.97864 2.67585,-2.00291 6.67512,-2.00291 3.07179,0 4.15902,0.17518 4.50721,0.72625 0.71306,1.12851 0.61274,27.74881 -0.10729,28.46884 -0.31954,0.31955 -1.24551,0.57766 -2.05769,0.57358 -2.98316,-0.015 -2.91565,0.28766 -3.07281,-13.77305 -0.082,-7.33862 -0.33351,-12.84835 -0.58644,-12.84835 -0.38214,0 -6.60853,4.96572 -14.0681,11.21969 -1.24645,1.04499 -2.72402,1.85033 -3.38915,1.84722 -0.77307,-0.003 -3.93087,-2.16748 -9.16795,-6.28229 -4.39379,-3.45222 -8.20658,-6.20974 -8.47287,-6.1278 -0.298,0.0917 -0.57725,4.9345 -0.72625,12.59472 -0.20136,10.35214 -0.36425,12.52289 -0.96833,12.90421 -1.01564,0.64112 -2.56958,0.58331 -3.54664,-0.13194 z"
       style="fill:#b43138"
       sodipodi:nodetypes="ssssccsssccssscccssssccsccssssssssscssscsssssscssscscssssssscsssssssccscsssssscccsssscccssscccccssscssssssssscssssccc" />
    <text
       xml:space="preserve"
       style="font-style:normal;font-weight:normal;font-size:19.36655617px;line-height:125%;font-family:sans-serif;letter-spacing:0px;word-spacing:0px;fill:#000000;fill-opacity:1;stroke:none;stroke-width:1px;stroke-linecap:butt;stroke-linejoin:miter;stroke-opacity:1"
       x="133.51869"
       y="233.34393"
       id="text6103"
       sodipodi:linespacing="125%"><tspan
         sodipodi:role="line"
         id="tspan6105"
         x="133.51869"
         y="233.34393"
         style="font-style:normal;font-variant:normal;font-weight:bold;font-stretch:normal;font-size:10.8936882px;font-family:Arial;-inkscape-font-specification:'Arial Bold';fill:#1e447d;fill-opacity:1">Engenharia de Computação</tspan></text>
  </g>
</svg>
